<svg xmlns="http://www.w3.org/2000/svg" viewBox="0 0 518.5 192.81"><defs><style>.cls-1{fill:#ed6d6f;}</style></defs><g id="Layer_2" data-name="Layer 2"><g id="Layer_1-2" data-name="Layer 1"><path class="cls-1" d="M0,0H49.23V20.6H22.75V172.21H49.23v20.6H0Z"/><path class="cls-1" d="M157.86,140.19v20.37H62.31V144.45l51.48-48.89c12.59-12,14.82-19.62,14.82-26.85,0-11.85-8.15-18.7-24.08-18.7-12.59,0-23.14,4.26-30.37,13.52l-16.85-13c10-13.52,28-21.48,49.26-21.48,28.15,0,46.29,14.26,46.29,37.22,0,12.59-3.51,24.07-21.48,40.92l-34.62,33Z"/><path class="cls-1" d="M171.19,95.75c0-42.59,23.34-66.66,54.08-66.66,30.92,0,54.25,24.07,54.25,66.66s-23.33,66.66-54.25,66.66C194.53,162.41,171.19,138.34,171.19,95.75Zm84.07,0c0-31.29-12.22-45.74-30-45.74-17.6,0-29.82,14.45-29.82,45.74s12.22,45.74,29.82,45.74C243,141.49,255.26,127,255.26,95.75Z"/><path class="cls-1" d="M388.77,140.19v20.37H293.22V144.45L344.7,95.56c12.59-12,14.82-19.62,14.82-26.85,0-11.85-8.15-18.7-24.08-18.7-12.59,0-23.14,4.26-30.37,13.52l-16.85-13c10-13.52,28-21.48,49.26-21.48,28.15,0,46.29,14.26,46.29,37.22,0,12.59-3.51,24.07-21.48,40.92l-34.62,33Z"/><path class="cls-1" d="M447.47,30.94V160.56H423.4V51.12H396V30.94Z"/><path class="cls-1" d="M469.48,192.81v-20.6h26.27V20.6H469.48V0h49V192.81Z"/></g></g></svg>