<svg xmlns="http://www.w3.org/2000/svg" viewBox="0 0 519 519"><defs><style>.cls-1{fill:#ed6d6f;}</style></defs><g id="Layer_2" data-name="Layer 2"><g id="Layer_1-2" data-name="Layer 1"><path class="cls-1" d="M448.5,259.5H519L498.79,159.09l-65,27.28-40.63-60.51L443,76,357.7,19.3,331,84.56,259.5,70.5V0L159.09,20.21l27.28,65-60.51,40.63L76,76,19.3,161.3,84.56,188,70.5,259.5H0L20.21,359.91l65-27.28,40.63,60.51L76,443,161.3,499.7,188,434.44,259.5,448.5V519l100.41-20.21-27.28-65,60.51-40.63L443,443,499.7,357.7,434.44,331Zm-189,105.91A105.91,105.91,0,1,1,365.41,259.5,105.91,105.91,0,0,1,259.5,365.41Z"/></g></g></svg>